<svg xmlns="http://www.w3.org/2000/svg" xml:space="preserve" viewBox="0 0 339 339">
  <path d="M169.5 0C76 0 0 76 0 169.5S76 339 169.5 339 339 263 339 169.5 263 0 169.5 0zm-26.1 17.2A216 216 0 0 0 93 81H43c23-33 59-56.7 100.3-63.8zM162 244.6h-59.4c-8.9-19.4-15-41.7-16.1-66.8H162v66.8zM33.6 96h52.5a195.2 195.2 0 0 0-14.6 66.8H15.2c1-24 7.6-46.8 18.4-66.8zm-18.4 81.8h56.3c.9 23.3 5.8 45.7 14.6 66.8H34.5c-11.1-20-18-42.7-19.3-66.8zM44 259.6h49.2a205.1 205.1 0 0 0 49.9 62.2c-40.6-7-75.9-30-99-62.2zm118 58a192.5 192.5 0 0 1-51.6-58H162v58zm0-154.8H86.5c1-23.3 6.2-45.7 15.8-66.8H162v66.8zm0-81.8h-52a197.7 197.7 0 0 1 52-59.5V81zm162 81.8h-56.4A192 192 0 0 0 253 96h52.5a154 154 0 0 1 18.5 66.8zM296 81h-50a216.1 216.1 0 0 0-50.4-63.8A154.8 154.8 0 0 1 296 81zM177 21.5A191.7 191.7 0 0 1 229 81h-52V21.5zm0 74.5h59.6a177.5 177.5 0 0 1 15.8 66.8H177V96zm0 81.8h75.4a176 176 0 0 1-16.1 66.8H177v-66.8zm0 81.8h51.5a192.5 192.5 0 0 1-51.6 58v-58zm18.8 62.2a208 208 0 0 0 50-62.2h49a154.8 154.8 0 0 1-99 62.2zm108.6-77.2H253a189.5 189.5 0 0 0 14.6-66.8h56.3a153.4 153.4 0 0 1-19.3 66.8z" fill="orange"/>
</svg>
